General
Unique ID                                : 105025456763483477686920854228503420131 (0x4F032ACE4C8FC956D482ABCF54F4DCE3)
Complete name                            : SiM - Blah Blah Blah [WEB-DL 1080p AAC x264-SEKAI].mkv
Format                                   : Matroska
Format version                           : Version 4
File size                                : 231 MiB
Duration                                 : 4 min 53 s
Overall bit rate                         : 6 610 kb/s
Frame rate                               : 23.976 FPS
Title                                    : SiM - Blah Blah Blah [WEB-DL 1080p AAC x264-SEKAI]
Encoded date                             : 2025-08-12 14:53:32 UTC
Writing application                      : mkvmerge 94.0 ('Initiate') 64-bit
Writing library                          : libebml v1.4.5 + libmatroska v1.7.1
Website                                  : https://sekai-archivist.blogspot.com/

Video
ID                                       : 1
Format                                   : AVC
Format/Info                              : Advanced Video Codec
Format profile                           : High@L4
Format settings                          : CABAC / 5 Ref Frames
Format settings, CABAC                   : Yes
Format settings, Reference frames        : 5 frames
Format settings, Slice count             : 8 slices per frame
Codec ID                                 : V_MPEG4/ISO/AVC
Duration                                 : 4 min 53 s
Bit rate                                 : 6 379 kb/s
Width                                    : 1 912 pixels
Height                                   : 868 pixels
Display aspect ratio                     : 2.2:1
Frame rate mode                          : Constant
Frame rate                               : 23.976 (24000/1001) FPS
Color space                              : YUV
Chroma subsampling                       : 4:2:0 (Type 2)
Bit depth                                : 8 bits
Scan type                                : Progressive
Bits/(Pixel*Frame)                       : 0.160
Stream size                              : 223 MiB (96%)
Language                                 : Japanese
Default                                  : Yes
Forced                                   : No
Color range                              : Limited
Color primaries                          : BT.709
Transfer characteristics                 : BT.709
Matrix coefficients                      : BT.709

Audio
ID                                       : 2
Format                                   : AAC LC
Format/Info                              : Advanced Audio Codec Low Complexity
Codec ID                                 : A_AAC-2
Duration                                 : 4 min 53 s
Bit rate                                 : 230 kb/s
Channel(s)                               : 2 channels
Channel layout                           : L R
Sampling rate                            : 48.0 kHz
Frame rate                               : 46.875 FPS (1024 SPF)
Compression mode                         : Lossy
Stream size                              : 8.03 MiB (3%)
Language                                 : Japanese
Default                                  : Yes
Forced                                   : No


